<?xml version="1.0" encoding="UTF-8"?>
<svg version="1.1" viewBox="0 0 2000 1824" width="125" height="114" xmlns="http://www.w3.org/2000/svg">
<path transform="translate(716)" d="m0 0h22l-3 2 3 3 1-1 1-4h23l-2 1v2l-7 1-6 2 21 7 16 8 11 7 12 11 8 8 9 15 7 14 10 26 13 40 9 27 14 43 309 927 13 38 12 36 20 61 21 63 11 29 6 9 2-2 9-34 15-46 12-36 14-41 14-43 40-120 13-40 40-120 11-28 9-16 12-14 8-7 18-11 14-6 11-3 8-1h374l20 2 11 3 10 4 18 12 12 11 11 14 8 15 8 20 3 11v7h2v12 1l3 1v3h-2l-2 5 4-1v8l-1-3-4-2-1-1-6 18-8 16-7 11-11 12-5 5-10 8-12 6-20 7-9 2-10 1-55 1h-162l-70 1-4 10-13 42-15 46-36 108-13 40-14 41-132 396-13 38-6 13-8 16-9 14-8 9-10 7-12 7-21 8-13 3h-26l-16-3-18-6-16-8-10-9-10-11-8-14-8-16-8-20-12-34-24-72-15-46-12-36-12-35-12-36-14-43-24-72-14-41-13-40-36-108-14-41-14-43-36-108-16-47-12-36-13-40-24-72-14-41-14-43-51-153-9-28-12-36-9-24-4-6-12 36-9 29-15 47-8 23-12 37-24 72-13 38-12 36-13 40-24 72-13 38-8 24-14 29-10 14-8 8-14 10-18 8-21 6-9 1-66 1-314-1-15-4-17-7-13-9-10-9-5-5-9-10-9-15-6-14-7-22-1-7-3-1 3-6 2-1 5-20 7-17 11-20 11-12 11-9 14-9 10-5 11-4 9-2 294-1 4-1 15-45 16-49 17-50 60-180 13-40 14-41 36-108 14-43 13-38 14-43 12-37 13-38 11-28 8-15 11-12 5-6 13-9 12-7 20-8 10-3-1-4zm4 1m1275 913 1 2z" fill="#fff"/>
<path transform="translate(1254,1821)" d="m0 0 16 1h12l2 2h-32v-2z" fill="#fff"/>
<path transform="translate(0,933)" d="m0 0 3 3-3-1z" fill="#fff"/>
<path transform="translate(2e3 903)" d="m0 0" fill="#fff"/>
<path transform="translate(709)" d="m0 0 2 1z" fill="#fff"/>
<path transform="translate(0,930)" d="m0 0" fill="#fff"/>
<path transform="translate(0,908)" d="m0 0" fill="#fff"/>
<path transform="translate(2e3 891)" d="m0 0" fill="#fff"/>
<path transform="translate(764)" d="m0 0" fill="#fff"/>
</svg>
